# xmcd
# 
# Track frame offsets:
#     150
#     14897
#     24045
#     37771
#     52056
#     67578
#     84148
#     102467
#     116116
#     139105
#     152207
#     167296
#     186226
#     201551
#     218703
# 
# Disc length: 3225
# 
# Revision: 1
# Processed by: cddbd v1.5.2PL0 Copyright (c) Steve Scherf et al.
# Submitted via: fre:ac v1.0.17
# 
DISCID=c50c970f
DTITLE=Ida Corr - One - Disc 1
DYEAR=2008
DGENRE=Funk
TTITLE0=Ride My Tempo
TTITLE1=Late Night Bimbo
TTITLE2=U Make Me Wanna
TTITLE3=Lonely Girl
TTITLE4=Make Them Beg
TTITLE5=Let Me Think About It
TTITLE6=Do U Believe?
TTITLE7=Country Girl
TTITLE8=Mad
TTITLE9=Hurry Up And Wait
TTITLE10=I'm Your Lady
TTITLE11=Mr. JB
TTITLE12=Man For Me
TTITLE13=Hangover Time
TTITLE14=U
EXTD=
EXTT0=
EXTT1=
EXTT2=
EXTT3=
EXTT4=
EXTT5=
EXTT6=
EXTT7=
EXTT8=
EXTT9=
EXTT10=
EXTT11=
EXTT12=
EXTT13=
EXTT14=
PLAYORDER=
